<?xml version="1.0" encoding="utf-8"?>
<!-- Uploaded to SVGRepo https://www.svgrepo.com -->
<svg version="1.1" id="Layer_1" xmlns="http://www.w3.org/2000/svg" xmlns:xlink="http://www.w3.org/1999/xlink" x="0px" y="0px"
	 width="260px" height="202px" viewBox="0 0 260 202" enable-background="new 0 0 260 202" xml:space="preserve">
<path d="M258,111.403c0,23.31-18.69,42.597-42,42.597h-77l43-38h-37l25-35h-36l-36,53h34l-14,20H32c-16.55,0-30-12.837-30-29.277
	c0-16.45,13.32-29.87,29.97-29.87c1.98,0,3.95,0.21,5.83,0.52c0-0.1-0.11-0.31-0.11-0.52c0-23.31,18.95-42.25,42.25-42.25
	c4.48,0,8.75,0.83,12.91,2.18C96.91,24.923,122.99,2,154,2c33.92,0,60.92,27.393,60.92,61.323c0,1.97-0.11,3.95-0.32,5.93
	c0.42,0,0.84-0.1,1.25-0.1C239.16,69.153,258.1,88.093,258,111.403z M139,154l-52.701,46L118,154H139z"/>
</svg>
